<svg xmlns="http://www.w3.org/2000/svg" viewBox="0 0 1200 240" role="img" aria-label="Live Process Status">
  <title>JAIVARDHAN OS · Live Process Status</title>
  <defs>
    <linearGradient id="bg" x1="0" y1="0" x2="0" y2="1">
      <stop offset="0%" stop-color="#020617"/>
      <stop offset="100%" stop-color="#0a0a1a"/>
    </linearGradient>
    <style>
      .mono { font-family: 'JetBrains Mono', 'Fira Code', monospace; }
    </style>
  </defs>

  <rect width="1200" height="240" fill="url(#bg)" rx="8"/>
  <rect x="20" y="20" width="1160" height="200" rx="6" fill="#06070d" stroke="#1e1b4b"/>

  <text x="40" y="46" class="mono" font-size="11" fill="#22d3ee" letter-spacing="3">▸ LIVE PROCESS STATUS · top · brain://jaivardhan</text>
  <text x="1160" y="46" text-anchor="end" class="mono" font-size="9" fill="#64748b">2026-07-30 07:11:16 UTC</text>

  <g transform="translate(40,72)" class="mono" font-size="9" fill="#64748b" letter-spacing="2">
    <text x="0">PROCESS</text>
    <text x="140">PID</text>
    <text x="200">STATUS</text>
    <text x="240">CPU ▸</text>
    <text x="900">MEM ▸</text>
  </g>

  <line x1="40" y1="62" x2="1160" y2="62" stroke="#1e1b4b" stroke-width="1"/>

    <g transform="translate(40,56)">
      <text x="0" y="0" font-family="JetBrains Mono, monospace" font-size="9" fill="#94a3b8">agent.trace</text>
      <text x="140" y="0" font-family="JetBrains Mono, monospace" font-size="9" fill="#64748b">3864</text>
      <text x="200" y="0" font-family="JetBrains Mono, monospace" font-size="9" fill="#64748b">RUN</text>
      <rect x="240" y="-6" width="600" height="6" rx="3" fill="#0d0d1a"/>
      <rect x="240" y="-6" width="240" height="6" rx="3" fill="#a78bfa"/>
      <text x="860" y="0" font-family="JetBrains Mono, monospace" font-size="9" fill="#cbd5e1">40%</text>
      <rect x="900" y="-6" width="200" height="6" rx="3" fill="#0d0d1a"/>
      <rect x="900" y="-6" width="160" height="6" rx="3" fill="#a78bfa" opacity="0.7"/>
      <text x="1110" y="0" font-family="JetBrains Mono, monospace" font-size="9" fill="#cbd5e1">80%</text>
    </g>
    <g transform="translate(40,64)">
      <text x="0" y="0" font-family="JetBrains Mono, monospace" font-size="9" fill="#94a3b8">agent.trace</text>
      <text x="140" y="0" font-family="JetBrains Mono, monospace" font-size="9" fill="#64748b">7539</text>
      <text x="200" y="0" font-family="JetBrains Mono, monospace" font-size="9" fill="#64748b">OK</text>
      <rect x="240" y="-6" width="600" height="6" rx="3" fill="#0d0d1a"/>
      <rect x="240" y="-6" width="474" height="6" rx="3" fill="#a78bfa"/>
      <text x="860" y="0" font-family="JetBrains Mono, monospace" font-size="9" fill="#cbd5e1">79%</text>
      <rect x="900" y="-6" width="200" height="6" rx="3" fill="#0d0d1a"/>
      <rect x="900" y="-6" width="38" height="6" rx="3" fill="#a78bfa" opacity="0.7"/>
      <text x="1110" y="0" font-family="JetBrains Mono, monospace" font-size="9" fill="#cbd5e1">19%</text>
    </g>
    <g transform="translate(40,72)">
      <text x="0" y="0" font-family="JetBrains Mono, monospace" font-size="9" fill="#94a3b8">agent.critic</text>
      <text x="140" y="0" font-family="JetBrains Mono, monospace" font-size="9" fill="#64748b">9205</text>
      <text x="200" y="0" font-family="JetBrains Mono, monospace" font-size="9" fill="#64748b">OK</text>
      <rect x="240" y="-6" width="600" height="6" rx="3" fill="#0d0d1a"/>
      <rect x="240" y="-6" width="402" height="6" rx="3" fill="#22d3ee"/>
      <text x="860" y="0" font-family="JetBrains Mono, monospace" font-size="9" fill="#cbd5e1">67%</text>
      <rect x="900" y="-6" width="200" height="6" rx="3" fill="#0d0d1a"/>
      <rect x="900" y="-6" width="114" height="6" rx="3" fill="#a78bfa" opacity="0.7"/>
      <text x="1110" y="0" font-family="JetBrains Mono, monospace" font-size="9" fill="#cbd5e1">57%</text>
    </g>
    <g transform="translate(40,80)">
      <text x="0" y="0" font-family="JetBrains Mono, monospace" font-size="9" fill="#94a3b8">agent.plan</text>
      <text x="140" y="0" font-family="JetBrains Mono, monospace" font-size="9" fill="#64748b">5832</text>
      <text x="200" y="0" font-family="JetBrains Mono, monospace" font-size="9" fill="#64748b">QUE</text>
      <rect x="240" y="-6" width="600" height="6" rx="3" fill="#0d0d1a"/>
      <rect x="240" y="-6" width="324" height="6" rx="3" fill="#a78bfa"/>
      <text x="860" y="0" font-family="JetBrains Mono, monospace" font-size="9" fill="#cbd5e1">54%</text>
      <rect x="900" y="-6" width="200" height="6" rx="3" fill="#0d0d1a"/>
      <rect x="900" y="-6" width="74" height="6" rx="3" fill="#a78bfa" opacity="0.7"/>
      <text x="1110" y="0" font-family="JetBrains Mono, monospace" font-size="9" fill="#cbd5e1">37%</text>
    </g>
    <g transform="translate(40,88)">
      <text x="0" y="0" font-family="JetBrains Mono, monospace" font-size="9" fill="#94a3b8">agent.tool</text>
      <text x="140" y="0" font-family="JetBrains Mono, monospace" font-size="9" fill="#64748b">5006</text>
      <text x="200" y="0" font-family="JetBrains Mono, monospace" font-size="9" fill="#64748b">QUE</text>
      <rect x="240" y="-6" width="600" height="6" rx="3" fill="#0d0d1a"/>
      <rect x="240" y="-6" width="96" height="6" rx="3" fill="#10b981"/>
      <text x="860" y="0" font-family="JetBrains Mono, monospace" font-size="9" fill="#cbd5e1">16%</text>
      <rect x="900" y="-6" width="200" height="6" rx="3" fill="#0d0d1a"/>
      <rect x="900" y="-6" width="40" height="6" rx="3" fill="#a78bfa" opacity="0.7"/>
      <text x="1110" y="0" font-family="JetBrains Mono, monospace" font-size="9" fill="#cbd5e1">20%</text>
    </g>
    <g transform="translate(40,96)">
      <text x="0" y="0" font-family="JetBrains Mono, monospace" font-size="9" fill="#94a3b8">agent.memory</text>
      <text x="140" y="0" font-family="JetBrains Mono, monospace" font-size="9" fill="#64748b">4770</text>
      <text x="200" y="0" font-family="JetBrains Mono, monospace" font-size="9" fill="#64748b">QUE</text>
      <rect x="240" y="-6" width="600" height="6" rx="3" fill="#0d0d1a"/>
      <rect x="240" y="-6" width="366" height="6" rx="3" fill="#06b6d4"/>
      <text x="860" y="0" font-family="JetBrains Mono, monospace" font-size="9" fill="#cbd5e1">61%</text>
      <rect x="900" y="-6" width="200" height="6" rx="3" fill="#0d0d1a"/>
      <rect x="900" y="-6" width="124" height="6" rx="3" fill="#a78bfa" opacity="0.7"/>
      <text x="1110" y="0" font-family="JetBrains Mono, monospace" font-size="9" fill="#cbd5e1">62%</text>
    </g>
    <g transform="translate(40,104)">
      <text x="0" y="0" font-family="JetBrains Mono, monospace" font-size="9" fill="#94a3b8">agent.ship</text>
      <text x="140" y="0" font-family="JetBrains Mono, monospace" font-size="9" fill="#64748b">8293</text>
      <text x="200" y="0" font-family="JetBrains Mono, monospace" font-size="9" fill="#64748b">RUN</text>
      <rect x="240" y="-6" width="600" height="6" rx="3" fill="#0d0d1a"/>
      <rect x="240" y="-6" width="78" height="6" rx="3" fill="#22d3ee"/>
      <text x="860" y="0" font-family="JetBrains Mono, monospace" font-size="9" fill="#cbd5e1">13%</text>
      <rect x="900" y="-6" width="200" height="6" rx="3" fill="#0d0d1a"/>
      <rect x="900" y="-6" width="112" height="6" rx="3" fill="#a78bfa" opacity="0.7"/>
      <text x="1110" y="0" font-family="JetBrains Mono, monospace" font-size="9" fill="#cbd5e1">56%</text>
    </g>
    <g transform="translate(40,112)">
      <text x="0" y="0" font-family="JetBrains Mono, monospace" font-size="9" fill="#94a3b8">agent.eval</text>
      <text x="140" y="0" font-family="JetBrains Mono, monospace" font-size="9" fill="#64748b">5419</text>
      <text x="200" y="0" font-family="JetBrains Mono, monospace" font-size="9" fill="#64748b">OK</text>
      <rect x="240" y="-6" width="600" height="6" rx="3" fill="#0d0d1a"/>
      <rect x="240" y="-6" width="234" height="6" rx="3" fill="#ec4899"/>
      <text x="860" y="0" font-family="JetBrains Mono, monospace" font-size="9" fill="#cbd5e1">39%</text>
      <rect x="900" y="-6" width="200" height="6" rx="3" fill="#0d0d1a"/>
      <rect x="900" y="-6" width="90" height="6" rx="3" fill="#a78bfa" opacity="0.7"/>
      <text x="1110" y="0" font-family="JetBrains Mono, monospace" font-size="9" fill="#cbd5e1">45%</text>
    </g>
    <g transform="translate(40,120)">
      <text x="0" y="0" font-family="JetBrains Mono, monospace" font-size="9" fill="#94a3b8">agent.audit</text>
      <text x="140" y="0" font-family="JetBrains Mono, monospace" font-size="9" fill="#64748b">3006</text>
      <text x="200" y="0" font-family="JetBrains Mono, monospace" font-size="9" fill="#64748b">RUN</text>
      <rect x="240" y="-6" width="600" height="6" rx="3" fill="#0d0d1a"/>
      <rect x="240" y="-6" width="186" height="6" rx="3" fill="#22d3ee"/>
      <text x="860" y="0" font-family="JetBrains Mono, monospace" font-size="9" fill="#cbd5e1">31%</text>
      <rect x="900" y="-6" width="200" height="6" rx="3" fill="#0d0d1a"/>
      <rect x="900" y="-6" width="92" height="6" rx="3" fill="#a78bfa" opacity="0.7"/>
      <text x="1110" y="0" font-family="JetBrains Mono, monospace" font-size="9" fill="#cbd5e1">46%</text>
    </g>
    <g transform="translate(40,128)">
      <text x="0" y="0" font-family="JetBrains Mono, monospace" font-size="9" fill="#94a3b8">agent.trace</text>
      <text x="140" y="0" font-family="JetBrains Mono, monospace" font-size="9" fill="#64748b">2182</text>
      <text x="200" y="0" font-family="JetBrains Mono, monospace" font-size="9" fill="#64748b">QUE</text>
      <rect x="240" y="-6" width="600" height="6" rx="3" fill="#0d0d1a"/>
      <rect x="240" y="-6" width="420" height="6" rx="3" fill="#fb7185"/>
      <text x="860" y="0" font-family="JetBrains Mono, monospace" font-size="9" fill="#cbd5e1">70%</text>
      <rect x="900" y="-6" width="200" height="6" rx="3" fill="#0d0d1a"/>
      <rect x="900" y="-6" width="118" height="6" rx="3" fill="#a78bfa" opacity="0.7"/>
      <text x="1110" y="0" font-family="JetBrains Mono, monospace" font-size="9" fill="#cbd5e1">59%</text>
    </g>
    <g transform="translate(40,136)">
      <text x="0" y="0" font-family="JetBrains Mono, monospace" font-size="9" fill="#94a3b8">agent.rag</text>
      <text x="140" y="0" font-family="JetBrains Mono, monospace" font-size="9" fill="#64748b">6807</text>
      <text x="200" y="0" font-family="JetBrains Mono, monospace" font-size="9" fill="#64748b">RUN</text>
      <rect x="240" y="-6" width="600" height="6" rx="3" fill="#0d0d1a"/>
      <rect x="240" y="-6" width="288" height="6" rx="3" fill="#10b981"/>
      <text x="860" y="0" font-family="JetBrains Mono, monospace" font-size="9" fill="#cbd5e1">48%</text>
      <rect x="900" y="-6" width="200" height="6" rx="3" fill="#0d0d1a"/>
      <rect x="900" y="-6" width="140" height="6" rx="3" fill="#a78bfa" opacity="0.7"/>
      <text x="1110" y="0" font-family="JetBrains Mono, monospace" font-size="9" fill="#cbd5e1">70%</text>
    </g>
    <g transform="translate(40,144)">
      <text x="0" y="0" font-family="JetBrains Mono, monospace" font-size="9" fill="#94a3b8">agent.plan</text>
      <text x="140" y="0" font-family="JetBrains Mono, monospace" font-size="9" fill="#64748b">9668</text>
      <text x="200" y="0" font-family="JetBrains Mono, monospace" font-size="9" fill="#64748b">OK</text>
      <rect x="240" y="-6" width="600" height="6" rx="3" fill="#0d0d1a"/>
      <rect x="240" y="-6" width="354" height="6" rx="3" fill="#fb7185"/>
      <text x="860" y="0" font-family="JetBrains Mono, monospace" font-size="9" fill="#cbd5e1">59%</text>
      <rect x="900" y="-6" width="200" height="6" rx="3" fill="#0d0d1a"/>
      <rect x="900" y="-6" width="34" height="6" rx="3" fill="#a78bfa" opacity="0.7"/>
      <text x="1110" y="0" font-family="JetBrains Mono, monospace" font-size="9" fill="#cbd5e1">17%</text>
    </g>
    <g transform="translate(40,152)">
      <text x="0" y="0" font-family="JetBrains Mono, monospace" font-size="9" fill="#94a3b8">agent.trace</text>
      <text x="140" y="0" font-family="JetBrains Mono, monospace" font-size="9" fill="#64748b">5369</text>
      <text x="200" y="0" font-family="JetBrains Mono, monospace" font-size="9" fill="#64748b">RUN</text>
      <rect x="240" y="-6" width="600" height="6" rx="3" fill="#0d0d1a"/>
      <rect x="240" y="-6" width="258" height="6" rx="3" fill="#fb7185"/>
      <text x="860" y="0" font-family="JetBrains Mono, monospace" font-size="9" fill="#cbd5e1">43%</text>
      <rect x="900" y="-6" width="200" height="6" rx="3" fill="#0d0d1a"/>
      <rect x="900" y="-6" width="124" height="6" rx="3" fill="#a78bfa" opacity="0.7"/>
      <text x="1110" y="0" font-family="JetBrains Mono, monospace" font-size="9" fill="#cbd5e1">62%</text>
    </g>
    <g transform="translate(40,160)">
      <text x="0" y="0" font-family="JetBrains Mono, monospace" font-size="9" fill="#94a3b8">agent.memory</text>
      <text x="140" y="0" font-family="JetBrains Mono, monospace" font-size="9" fill="#64748b">9201</text>
      <text x="200" y="0" font-family="JetBrains Mono, monospace" font-size="9" fill="#64748b">RUN</text>
      <rect x="240" y="-6" width="600" height="6" rx="3" fill="#0d0d1a"/>
      <rect x="240" y="-6" width="354" height="6" rx="3" fill="#f59e0b"/>
      <text x="860" y="0" font-family="JetBrains Mono, monospace" font-size="9" fill="#cbd5e1">59%</text>
      <rect x="900" y="-6" width="200" height="6" rx="3" fill="#0d0d1a"/>
      <rect x="900" y="-6" width="80" height="6" rx="3" fill="#a78bfa" opacity="0.7"/>
      <text x="1110" y="0" font-family="JetBrains Mono, monospace" font-size="9" fill="#cbd5e1">40%</text>
    </g>
    <g transform="translate(40,168)">
      <text x="0" y="0" font-family="JetBrains Mono, monospace" font-size="9" fill="#94a3b8">agent.memory</text>
      <text x="140" y="0" font-family="JetBrains Mono, monospace" font-size="9" fill="#64748b">5106</text>
      <text x="200" y="0" font-family="JetBrains Mono, monospace" font-size="9" fill="#64748b">RUN</text>
      <rect x="240" y="-6" width="600" height="6" rx="3" fill="#0d0d1a"/>
      <rect x="240" y="-6" width="342" height="6" rx="3" fill="#06b6d4"/>
      <text x="860" y="0" font-family="JetBrains Mono, monospace" font-size="9" fill="#cbd5e1">57%</text>
      <rect x="900" y="-6" width="200" height="6" rx="3" fill="#0d0d1a"/>
      <rect x="900" y="-6" width="46" height="6" rx="3" fill="#a78bfa" opacity="0.7"/>
      <text x="1110" y="0" font-family="JetBrains Mono, monospace" font-size="9" fill="#cbd5e1">23%</text>
    </g>
    <g transform="translate(40,176)">
      <text x="0" y="0" font-family="JetBrains Mono, monospace" font-size="9" fill="#94a3b8">agent.core</text>
      <text x="140" y="0" font-family="JetBrains Mono, monospace" font-size="9" fill="#64748b">8624</text>
      <text x="200" y="0" font-family="JetBrains Mono, monospace" font-size="9" fill="#64748b">RUN</text>
      <rect x="240" y="-6" width="600" height="6" rx="3" fill="#0d0d1a"/>
      <rect x="240" y="-6" width="534" height="6" rx="3" fill="#fb7185"/>
      <text x="860" y="0" font-family="JetBrains Mono, monospace" font-size="9" fill="#cbd5e1">89%</text>
      <rect x="900" y="-6" width="200" height="6" rx="3" fill="#0d0d1a"/>
      <rect x="900" y="-6" width="48" height="6" rx="3" fill="#a78bfa" opacity="0.7"/>
      <text x="1110" y="0" font-family="JetBrains Mono, monospace" font-size="9" fill="#cbd5e1">24%</text>
    </g>
    <g transform="translate(40,184)">
      <text x="0" y="0" font-family="JetBrains Mono, monospace" font-size="9" fill="#94a3b8">agent.memory</text>
      <text x="140" y="0" font-family="JetBrains Mono, monospace" font-size="9" fill="#64748b">9284</text>
      <text x="200" y="0" font-family="JetBrains Mono, monospace" font-size="9" fill="#64748b">RUN</text>
      <rect x="240" y="-6" width="600" height="6" rx="3" fill="#0d0d1a"/>
      <rect x="240" y="-6" width="132" height="6" rx="3" fill="#10b981"/>
      <text x="860" y="0" font-family="JetBrains Mono, monospace" font-size="9" fill="#cbd5e1">22%</text>
      <rect x="900" y="-6" width="200" height="6" rx="3" fill="#0d0d1a"/>
      <rect x="900" y="-6" width="52" height="6" rx="3" fill="#a78bfa" opacity="0.7"/>
      <text x="1110" y="0" font-family="JetBrains Mono, monospace" font-size="9" fill="#cbd5e1">26%</text>
    </g>
    <g transform="translate(40,192)">
      <text x="0" y="0" font-family="JetBrains Mono, monospace" font-size="9" fill="#94a3b8">agent.trace</text>
      <text x="140" y="0" font-family="JetBrains Mono, monospace" font-size="9" fill="#64748b">8762</text>
      <text x="200" y="0" font-family="JetBrains Mono, monospace" font-size="9" fill="#64748b">OK</text>
      <rect x="240" y="-6" width="600" height="6" rx="3" fill="#0d0d1a"/>
      <rect x="240" y="-6" width="48" height="6" rx="3" fill="#10b981"/>
      <text x="860" y="0" font-family="JetBrains Mono, monospace" font-size="9" fill="#cbd5e1">8%</text>
      <rect x="900" y="-6" width="200" height="6" rx="3" fill="#0d0d1a"/>
      <rect x="900" y="-6" width="92" height="6" rx="3" fill="#a78bfa" opacity="0.7"/>
      <text x="1110" y="0" font-family="JetBrains Mono, monospace" font-size="9" fill="#cbd5e1">46%</text>
    </g>
    <g transform="translate(40,200)">
      <text x="0" y="0" font-family="JetBrains Mono, monospace" font-size="9" fill="#94a3b8">agent.tool</text>
      <text x="140" y="0" font-family="JetBrains Mono, monospace" font-size="9" fill="#64748b">2739</text>
      <text x="200" y="0" font-family="JetBrains Mono, monospace" font-size="9" fill="#64748b">RUN</text>
      <rect x="240" y="-6" width="600" height="6" rx="3" fill="#0d0d1a"/>
      <rect x="240" y="-6" width="336" height="6" rx="3" fill="#10b981"/>
      <text x="860" y="0" font-family="JetBrains Mono, monospace" font-size="9" fill="#cbd5e1">56%</text>
      <rect x="900" y="-6" width="200" height="6" rx="3" fill="#0d0d1a"/>
      <rect x="900" y="-6" width="136" height="6" rx="3" fill="#a78bfa" opacity="0.7"/>
      <text x="1110" y="0" font-family="JetBrains Mono, monospace" font-size="9" fill="#cbd5e1">68%</text>
    </g>
    <g transform="translate(40,208)">
      <text x="0" y="0" font-family="JetBrains Mono, monospace" font-size="9" fill="#94a3b8">agent.plan</text>
      <text x="140" y="0" font-family="JetBrains Mono, monospace" font-size="9" fill="#64748b">6212</text>
      <text x="200" y="0" font-family="JetBrains Mono, monospace" font-size="9" fill="#64748b">QUE</text>
      <rect x="240" y="-6" width="600" height="6" rx="3" fill="#0d0d1a"/>
      <rect x="240" y="-6" width="258" height="6" rx="3" fill="#a78bfa"/>
      <text x="860" y="0" font-family="JetBrains Mono, monospace" font-size="9" fill="#cbd5e1">43%</text>
      <rect x="900" y="-6" width="200" height="6" rx="3" fill="#0d0d1a"/>
      <rect x="900" y="-6" width="134" height="6" rx="3" fill="#a78bfa" opacity="0.7"/>
      <text x="1110" y="0" font-family="JetBrains Mono, monospace" font-size="9" fill="#cbd5e1">67%</text>
    </g>
    <g transform="translate(40,216)">
      <text x="0" y="0" font-family="JetBrains Mono, monospace" font-size="9" fill="#94a3b8">agent.memory</text>
      <text x="140" y="0" font-family="JetBrains Mono, monospace" font-size="9" fill="#64748b">5933</text>
      <text x="200" y="0" font-family="JetBrains Mono, monospace" font-size="9" fill="#64748b">RUN</text>
      <rect x="240" y="-6" width="600" height="6" rx="3" fill="#0d0d1a"/>
      <rect x="240" y="-6" width="132" height="6" rx="3" fill="#ec4899"/>
      <text x="860" y="0" font-family="JetBrains Mono, monospace" font-size="9" fill="#cbd5e1">22%</text>
      <rect x="900" y="-6" width="200" height="6" rx="3" fill="#0d0d1a"/>
      <rect x="900" y="-6" width="154" height="6" rx="3" fill="#a78bfa" opacity="0.7"/>
      <text x="1110" y="0" font-family="JetBrains Mono, monospace" font-size="9" fill="#cbd5e1">77%</text>
    </g>
    <g transform="translate(40,224)">
      <text x="0" y="0" font-family="JetBrains Mono, monospace" font-size="9" fill="#94a3b8">agent.rag</text>
      <text x="140" y="0" font-family="JetBrains Mono, monospace" font-size="9" fill="#64748b">9422</text>
      <text x="200" y="0" font-family="JetBrains Mono, monospace" font-size="9" fill="#64748b">RUN</text>
      <rect x="240" y="-6" width="600" height="6" rx="3" fill="#0d0d1a"/>
      <rect x="240" y="-6" width="60" height="6" rx="3" fill="#10b981"/>
      <text x="860" y="0" font-family="JetBrains Mono, monospace" font-size="9" fill="#cbd5e1">10%</text>
      <rect x="900" y="-6" width="200" height="6" rx="3" fill="#0d0d1a"/>
      <rect x="900" y="-6" width="42" height="6" rx="3" fill="#a78bfa" opacity="0.7"/>
      <text x="1110" y="0" font-family="JetBrains Mono, monospace" font-size="9" fill="#cbd5e1">21%</text>
    </g>

  <text x="40" y="216" class="mono" font-size="9" fill="#64748b" letter-spacing="2">▸ 22 processes · 1 user · load: 0.42 0.31 0.28 · uptime: 142d</text>
  <text x="1160" y="216" text-anchor="end" class="mono" font-size="9" fill="#22d3ee">● AUTO-GENERATED · 2026-07-30T07:11:16.580047+00:00</text>
</svg>

